<svg width="390" height="500" viewBox="0 0 390 500" fill="none" xmlns="http://www.w3.org/2000/svg">
<path d="M-15.8797 99.1412C-77.102 141.886 -152.678 330.193 -12.4033 466.634C34.6378 453.154 156.919 223.125 -15.8797 99.1412Z" fill="#FF2204" fill-opacity="0.7"/>
<path d="M-9.14348 98.854C-47.4112 161.402 -38.4035 363.523 146.54 436.207C183.979 405.992 200.384 147.758 -9.14348 98.854Z" fill="#FFB904" fill-opacity="0.7"/>
<path d="M-9.22081 107.443C-8.62044 180.15 106.918 350.595 304.052 323.542C319.991 279.205 196.277 47.8684 -9.22081 107.443Z" fill="#A3E484" fill-opacity="0.7"/>
<path d="M-12.9585 104.061C21.1094 169.363 203.02 274.477 366.803 167.225C360.607 120.55 143.304 -36.0288 -12.9585 104.061Z" fill="#0CDCEA" fill-opacity="0.7"/>
<path d="M-15.8797 99.1412C-77.102 141.886 -152.678 330.193 -12.4033 466.634C34.6378 453.154 156.919 223.125 -15.8797 99.1412Z" fill="#FF2204" fill-opacity="0.7"/>
<path d="M-9.14348 98.854C-47.4112 161.402 -38.4035 363.523 146.54 436.207C183.979 405.992 200.384 147.758 -9.14348 98.854Z" fill="#FFB904" fill-opacity="0.7"/>
<path d="M-9.22081 107.443C-8.62044 180.15 106.918 350.595 304.052 323.542C319.991 279.205 196.277 47.8684 -9.22081 107.443Z" fill="#A3E484" fill-opacity="0.7"/>
<path d="M-12.9585 104.061C21.1094 169.363 203.02 274.477 366.803 167.225C360.607 120.55 143.304 -36.0288 -12.9585 104.061Z" fill="#0CDCEA" fill-opacity="0.7"/>
</svg>

