<svg width="394" height="506" viewBox="0 0 394 506" fill="none" xmlns="http://www.w3.org/2000/svg">
<path d="M410.712 402.141C471.498 358.777 545.16 169.713 403.509 34.7028C356.607 48.6589 236.665 279.916 410.712 402.141Z" fill="#FF2204" fill-opacity="0.7"/>
<path d="M403.979 402.496C441.611 339.564 430.553 137.545 244.883 66.74C207.752 97.3325 193.967 355.72 403.979 402.496Z" fill="#FFB904" fill-opacity="0.7"/>
<path d="M403.969 393.907C402.632 321.21 285.37 151.946 88.521 180.997C73.0322 225.493 199.086 455.563 403.969 393.907Z" fill="#A3E484" fill-opacity="0.7"/>
<path d="M407.741 397.25C373.013 332.297 190.045 229.034 27.3586 337.941C34.0277 384.551 252.907 538.918 407.741 397.25Z" fill="#0CDCEA" fill-opacity="0.7"/>
<path d="M410.712 402.141C471.498 358.777 545.16 169.713 403.509 34.7028C356.607 48.6589 236.665 279.916 410.712 402.141Z" fill="#FF2204" fill-opacity="0.7"/>
<path d="M403.979 402.496C441.611 339.564 430.553 137.545 244.883 66.74C207.752 97.3325 193.967 355.72 403.979 402.496Z" fill="#FFB904" fill-opacity="0.7"/>
<path d="M403.969 393.907C402.632 321.21 285.37 151.946 88.521 180.997C73.0322 225.493 199.086 455.563 403.969 393.907Z" fill="#A3E484" fill-opacity="0.7"/>
<path d="M407.741 397.25C373.013 332.297 190.045 229.034 27.3586 337.941C34.0277 384.551 252.907 538.918 407.741 397.25Z" fill="#0CDCEA" fill-opacity="0.7"/>
</svg>

